<?xml version="1.0" encoding="utf-8"?>
<!-- Generator: Adobe Illustrator 26.0.3, SVG Export Plug-In . SVG Version: 6.00 Build 0)  -->
<svg version="1.0" id="katman_1" xmlns="http://www.w3.org/2000/svg" xmlns:xlink="http://www.w3.org/1999/xlink" x="0px" y="0px"
	 viewBox="0 0 800 600" style="enable-background:new 0 0 800 600;" xml:space="preserve">
<style type="text/css">
	.st0{fill:#32BDE8;}
</style>
<g id="Layer_1-2">
	<g id="Group_201">
		<path id="Path_662" d="M87.5,253.8h38.2c7.4-0.5,14.8,1.6,20.9,5.9c5,4.3,7.7,10.7,7.2,17.2c0,4-1.3,7.9-3.7,11.1
			c-2.7,3.5-6.5,5.9-10.8,6.8c4.8,0.8,9.2,3.4,12.4,7.1c3.3,4.2,5,9.4,4.7,14.7c0.3,6.7-2.6,13.1-7.7,17.4
			c-6.1,4.5-13.5,6.8-21.1,6.4h-40V253.8z M125.3,288.8c2.9,0.1,5.8-0.9,8-2.9c4-4.4,4-11.1,0-15.5c-2.2-2-5.1-3-8-2.9H105v21.3
			L125.3,288.8z M123.8,326.9c4,0.3,8-0.8,11.4-3c5-5.2,5-13.3,0-18.5c-3.3-2.3-7.4-3.3-11.4-3H105v24.6H123.8z"/>
		<path id="Path_663" d="M173.2,333.6c-5.1-5.4-7.7-12.7-7.2-20.1v-32.7c-0.5-7.4,2.1-14.7,7.2-20.1c4.8-4.6,12.7-6.9,23.7-6.9h29
			v13.7h-29c-3.7-0.3-7.3,0.9-10.1,3.2c-2.4,2.8-3.6,6.5-3.3,10.2v9.5h36.9V304h-36.9v9.6c-1,6.4,3.3,12.4,9.7,13.4
			c1.2,0.2,2.4,0.2,3.7,0h29.2v13.6h-29.2C185.9,340.6,178,338.3,173.2,333.6z"/>
		<path id="Path_664" d="M326,253.8h9c3.7-0.1,7.4,0.5,10.9,1.9c2.8,1.3,5.3,3.4,7.1,5.9c2.6,3.8,5,7.9,6.9,12.1l7.2,14.5l7.2-14.5
			c2-4.2,4.3-8.2,6.9-12.1c1.8-2.5,4.2-4.6,7-5.9c3.5-1.4,7.2-2,11-1.9h9v86.7h-15.9v-68.5c-1,0-1.9,0.5-2.4,1.3
			c-1.1,1.6-2.1,3.2-3,4.8L367.1,315l-19.8-36.8c-1.3-2.3-2.3-3.9-3-4.9c-0.6-0.8-1.5-1.4-2.5-1.5v68.6H326V253.8z"/>
		<path id="Path_665" d="M475.1,320.4h-33.9l-5.8,20.2h-17.5l21.2-69.1c1.1-4,2.7-7.9,4.7-11.6c1.4-2.5,3.4-4.5,5.9-5.8
			c2.7-1.2,5.6-1.8,8.5-1.8c2.9-0.1,5.8,0.5,8.4,1.7c2.5,1.4,4.5,3.4,5.9,5.8c2.1,3.6,3.7,7.5,4.8,11.5l21.2,69.1h-17.5L475.1,320.4
			z M471.3,307.4l-10.4-35.6c-0.6-2.2-1.5-3.2-2.7-3.2c-1.3,0-2.2,1.1-2.7,3.2L445,307.4H471.3z"/>
		<path id="Path_666" d="M508.1,253.8h38.2c7.4-0.5,14.8,1.6,20.9,5.9c5,4.3,7.7,10.7,7.2,17.2c0,4-1.3,7.9-3.7,11.1
			c-2.7,3.5-6.5,5.9-10.8,6.8c4.8,0.8,9.2,3.4,12.4,7.1c3.3,4.2,5,9.4,4.7,14.7c0.3,6.7-2.6,13.1-7.7,17.4
			c-6.1,4.5-13.5,6.8-21.1,6.4h-40L508.1,253.8z M545.8,288.8c2.9,0.1,5.8-0.9,8-2.9c4.1-4.4,4.1-11.1,0-15.5c-2.2-2-5-3-8-2.9
			h-20.3v21.3L545.8,288.8z M544.4,326.9c4,0.3,8-0.8,11.4-3c5-5.2,5-13.3,0-18.5c-3.3-2.3-7.4-3.3-11.4-3h-18.8v24.5H544.4z"/>
		<path id="Path_667" d="M593.8,333.6c-4.9-5.5-7.4-12.7-6.9-20.1v-59.7h17.5v59.7c-0.3,3.6,0.8,7.2,3,10.1c2.4,2.4,5.8,3.6,9.2,3.3
			h27.8v13.6h-27.8C606,340.6,598.4,338.2,593.8,333.6z"/>
		<path id="Path_668" d="M659.3,333.6c-5.1-5.4-7.7-12.7-7.2-20.1v-32.7c-0.5-7.4,2.1-14.7,7.2-20.1c4.8-4.6,12.7-6.9,23.7-6.9h29
			v13.7h-29c-3.7-0.3-7.3,0.9-10.1,3.2c-2.4,2.8-3.6,6.5-3.3,10.2v9.5h36.9V304h-36.9v9.6c-1,6.4,3.3,12.4,9.7,13.4
			c1.2,0.2,2.4,0.2,3.7,0h29.2v13.6h-29.2C671.9,340.6,664,338.3,659.3,333.6z"/>
		<path id="Path_669" class="st0" d="M298.8,340.6h17.5l-21.2-69.1c-1.1-4-2.7-7.9-4.8-11.5c-1.4-2.4-3.4-4.5-5.9-5.8
			c-2.6-1.2-5.5-1.8-8.4-1.7c-2.9-0.1-5.8,0.5-8.5,1.7c-2.5,1.3-4.5,3.4-5.9,5.8c-2,3.6-3.6,7.5-4.7,11.5l-21.2,69.1h17.5
			c9-31.3-1.6,5.4,20.1-68.9c0.6-2.2,1.5-3.2,2.7-3.2c1.3,0,2.2,1.1,2.8,3.3C299.8,343.8,287.3,300.7,298.8,340.6z"/>
	</g>
</g>
</svg>
