<?xml version="1.0" encoding="iso-8859-1"?>
<!-- Uploaded to: SVG Repo, www.svgrepo.com, Generator: SVG Repo Mixer Tools -->
<svg height="800px" width="800px" version="1.1" id="Layer_1" xmlns="http://www.w3.org/2000/svg" xmlns:xlink="http://www.w3.org/1999/xlink" 
	 viewBox="0 0 512 512" xml:space="preserve">
<g transform="translate(1 1)">
	<path style="fill:#D0E8F9;" d="M281.483,502.172C162.31,502.172,65.207,391.828,65.207,255S162.31,7.828,281.483,7.828
		S497.759,118.172,497.759,255S400.655,502.172,281.483,502.172L281.483,502.172z"/>
	<path style="fill:#0096E6;" d="M281.483,511C157.014,511,56.379,396.241,56.379,255S157.014-1,281.483-1
		s225.103,114.759,225.103,256S405.952,511,281.483,511z M281.483,16.655C166.724,16.655,74.034,123.469,74.034,255
		s92.69,238.345,207.448,238.345S488.931,386.531,488.931,255S396.241,16.655,281.483,16.655z"/>
	<path id="SVGCleanerId_0" style="fill:#0096E6;" d="M281.483,475.69C176.434,475.69,91.69,376.821,91.69,255
		S176.434,34.31,281.483,34.31S471.276,133.179,471.276,255S386.531,475.69,281.483,475.69z M281.483,51.966
		c-95.338,0-172.138,90.924-172.138,203.034s76.8,203.034,172.138,203.034S453.621,367.11,453.621,255
		S376.821,51.966,281.483,51.966z"/>
	<path style="fill:#FFFFFF;" d="M65.207,255C65.207,128.766,148.186,24.6,255,9.593c-8.828-0.883-17.655-1.766-26.483-1.766
		C109.345,7.828,12.241,118.172,12.241,255s97.103,247.172,216.276,247.172c8.828,0,17.655-0.883,26.483-1.766
		C148.186,485.4,65.207,381.234,65.207,255L65.207,255z"/>
	<g>
		<path style="fill:#0096E6;" d="M228.517,511C104.048,511,3.414,396.241,3.414,255S104.048-1,228.517-1
			c8.828,0,17.655,0.883,27.366,1.766v17.655C152.6,32.545,74.034,134.945,74.034,255S152.6,477.455,255.883,491.579v17.655
			C246.172,510.117,237.345,511,228.517,511z M191.441,20.186C94.338,40.49,21.069,138.476,21.069,255
			s73.269,214.51,170.372,234.814C111.11,449.207,56.379,358.283,56.379,255S111.11,60.793,191.441,20.186z"/>
		<path style="fill:#0096E6;" d="M157.897,466.862h-52.966c-5.297,0-8.828-3.531-8.828-8.828s3.531-8.828,8.828-8.828h52.966
			c5.297,0,8.828,3.531,8.828,8.828S163.193,466.862,157.897,466.862z M115.524,422.724H62.559c-5.297,0-8.828-3.531-8.828-8.828
			s3.531-8.828,8.828-8.828h52.966c5.297,0,8.828,3.531,8.828,8.828S120.821,422.724,115.524,422.724z M86.393,369.759H33.428
			c-5.297,0-8.828-3.531-8.828-8.828s3.531-8.828,8.828-8.828h52.966c5.297,0,8.828,3.531,8.828,8.828
			S90.807,369.759,86.393,369.759z M72.269,325.621H19.303c-5.297,0-8.828-3.531-8.828-8.828s3.531-8.828,8.828-8.828h52.966
			c5.297,0,8.828,3.531,8.828,8.828S76.683,325.621,72.269,325.621z M65.207,281.483H13.124c-5.297,0-8.828-3.531-8.828-8.828
			c0-5.297,3.531-8.828,8.828-8.828h52.083c5.297,0,8.828,3.531,8.828,8.828C74.034,277.952,70.503,281.483,65.207,281.483z
			 M66.09,237.345H13.124c-5.297,0-8.828-3.531-8.828-8.828s3.531-8.828,8.828-8.828H66.09c5.297,0,8.828,3.531,8.828,8.828
			S71.386,237.345,66.09,237.345z M74.034,193.207H21.069c-5.297,0-8.828-3.531-8.828-8.828s3.531-8.828,8.828-8.828h52.966
			c5.297,0,8.828,3.531,8.828,8.828S79.331,193.207,74.034,193.207z M89.924,149.069H36.959c-5.297,0-8.828-3.531-8.828-8.828
			s3.531-8.828,8.828-8.828h52.966c5.297,0,8.828,3.531,8.828,8.828S94.338,149.069,89.924,149.069z M122.586,96.103H69.621
			c-5.297,0-8.828-3.531-8.828-8.828s3.531-8.828,8.828-8.828h52.966c5.297,0,8.828,3.531,8.828,8.828
			S127.883,96.103,122.586,96.103z M169.372,51.966H117.29c-5.297,0-8.828-3.531-8.828-8.828s3.531-8.828,8.828-8.828h52.083
			c5.297,0,8.828,3.531,8.828,8.828S174.669,51.966,169.372,51.966z"/>
	</g>
	<path style="fill:#FFFFFF;" d="M281.483,466.862c-99.752,0-180.966-95.338-180.966-211.862S181.731,43.138,281.483,43.138
		S462.448,138.476,462.448,255S381.234,466.862,281.483,466.862L281.483,466.862z"/>
	<g>
		<path id="SVGCleanerId_0_1_" style="fill:#0096E6;" d="M281.483,475.69C176.434,475.69,91.69,376.821,91.69,255
			S176.434,34.31,281.483,34.31S471.276,133.179,471.276,255S386.531,475.69,281.483,475.69z M281.483,51.966
			c-95.338,0-172.138,90.924-172.138,203.034s76.8,203.034,172.138,203.034S453.621,367.11,453.621,255
			S376.821,51.966,281.483,51.966z"/>
	</g>
	<path style="fill:#D0E8F9;" d="M387.414,397.124l-41.49-21.186c-2.648-1.766-4.414-5.297-4.414-8.828v-15.89
		c22.069-12.359,34.428-33.545,39.724-60.028c8.828-3.531,15.007-12.359,15.007-23.834V255c0-9.71-4.414-18.538-11.476-22.952
		c-4.414-48.552-32.662-72.386-79.448-78.566c-2.648,0-4.414-0.883-7.062-0.883c-17.655-0.883-35.31-7.062-51.2-20.303
		c-6.179-5.297-12.359-11.476-15.89-16.772c-1.766-2.648-5.297-1.766-5.297,1.766c0.883,5.297,1.766,11.476,2.648,18.538
		c4.414,25.6,1.766,21.186-7.062,43.255c-5.297,12.359-8.828,26.483-9.71,41.49c-9.71,4.414-15.89,14.124-15.89,25.6v15.007
		c0,13.241,8.828,25.6,21.186,29.131c7.945,30.014,23.834,53.848,50.317,64.441v16.772c0,4.414-2.648,7.945-6.179,10.593
		l-54.731,32.662c-7.945,5.297-14.124,12.359-18.538,20.303c27.366,19.421,60.028,30.897,94.455,30.897
		c45.903,0,88.276-20.303,120.938-53.848C398.89,405.952,393.593,399.772,387.414,397.124L387.414,397.124z"/>
	<path style="fill:#0096E6;" d="M281.483,475.69c-35.31,0-69.738-11.476-99.752-32.662l-6.179-4.414l3.531-7.062
		c5.297-9.71,13.241-17.655,22.069-23.835l54.731-33.545c0.883-0.883,1.766-1.766,1.766-2.648v-10.593
		c-22.952-11.476-39.724-32.662-48.552-63.559c-13.241-6.179-22.069-20.303-22.069-35.31v-15.89
		c0-13.241,6.179-24.717,16.772-30.897c1.766-14.124,5.297-28.248,9.71-39.724c1.766-5.297,3.531-8.828,5.297-11.476
		c4.414-9.71,4.414-9.71,1.766-26.483c-0.883-6.179-1.766-12.359-2.648-18.538c-0.883-5.297,2.648-10.593,7.062-12.359
		c5.297-1.766,10.593,0,14.124,4.414s7.945,9.71,14.124,15.007c15.89,14.124,33.545,17.655,45.903,17.655
		c2.648,0,5.297,0,7.945,0.883c52.083,7.062,81.214,33.545,86.51,82.097c7.062,7.062,11.476,16.772,11.476,27.366v12.359
		c0,13.241-6.179,24.717-15.89,30.014c-7.062,26.483-19.421,46.786-38.841,58.262v10.593c0,0.883,0,0.883,0,0.883l41.49,21.186
		c7.945,4.414,15.007,10.593,18.538,20.303l2.648,5.297l-4.414,4.414C373.29,455.386,328.269,475.69,281.483,475.69z
		 M199.386,433.317c24.717,15.89,52.966,24.717,82.097,24.717c39.724,0,78.566-16.772,109.462-46.786
		c-1.766-2.648-4.414-5.297-7.945-7.062l0,0L341.51,383c-6.179-2.648-9.71-9.71-9.71-16.772v-20.303l4.414-2.648
		c18.538-9.71,30.014-27.365,35.31-53.848l0.883-4.414l4.414-1.766c5.297-1.766,8.828-8.828,8.828-15.89V255
		c0-6.179-2.648-12.359-7.945-15.89l-3.531-2.648v-4.414c-4.414-42.372-26.483-64.441-72.386-70.621
		c-1.766,0-4.414-0.883-6.179-0.883c-21.186-0.883-40.607-8.828-56.497-22.069c-0.883-0.883-2.648-1.766-3.531-2.648
		c3.531,18.538,2.648,22.952-3.531,34.428c-1.766,2.648-2.648,6.179-5.297,11.476c-4.414,11.476-7.945,24.717-9.71,39.724
		l-0.883,5.297l-0.883,1.766c-7.062,3.531-10.593,9.71-10.593,17.655v15.007c0,9.71,6.179,17.655,15.007,20.303l4.414,1.766
		l0.883,4.414c7.945,30.014,22.952,49.434,45.021,58.262l5.297,2.648v22.069c0,7.062-3.531,14.124-9.71,17.655l-55.614,34.428
		C206.448,425.372,202.034,428.903,199.386,433.317z"/>
</g>
</svg>